<svg width="40" height="40" viewBox="0 0 40 40" fill="none" xmlns="http://www.w3.org/2000/svg">
<g id="bi:steam" clip-path="url(#clip0_1_1504)">
<g id="Group">
<path id="Vector" d="M0.8225 25.8325C2.07698 29.9336 4.61496 33.5236 8.06283 36.0741C11.5107 38.6246 15.6863 40.0007 19.975 40C31.035 40 40 31.045 40 20C40 8.955 31.035 1.49946e-06 19.9775 1.49946e-06C14.9007 -0.00196246 10.0128 1.9254 6.30364 5.39182C2.59446 8.85824 0.34116 13.6047 0 18.67L0.0075 18.685L10.7675 23.1075C11.738 22.465 12.8873 22.1472 14.05 22.2L18.95 15.09L18.9475 14.99C18.9495 12.9734 19.7513 11.0399 21.177 9.61376C22.6027 8.18758 24.5359 7.38515 26.5525 7.3825C28.5691 7.38515 30.5023 8.18758 31.928 9.61376C33.3537 11.0399 34.1555 12.9734 34.1575 14.99C34.1567 16.0033 33.9538 17.0063 33.5606 17.9402C33.1673 18.8741 32.5917 19.7202 31.8674 20.4289C31.1432 21.1376 30.2848 21.6946 29.3425 22.0674C28.4003 22.4402 27.3931 22.6213 26.38 22.6L19.37 27.6C19.3938 28.5262 19.1856 29.4436 18.7645 30.2688C18.3434 31.094 17.7226 31.8009 16.9587 32.3251C16.1948 32.8493 15.3119 33.1742 14.3904 33.2702C13.469 33.3662 12.5381 33.2304 11.6825 32.875C10.8613 32.5328 10.1346 31.998 9.56366 31.3157C8.99276 30.6334 8.59449 29.8237 8.4025 28.955L0.825 25.8325H0.8225Z" fill="white"/>
<path id="Vector_2" d="M12.17 31.7074C13.2116 32.1049 14.3671 32.0812 15.3914 31.6411C16.4158 31.201 17.2284 30.3792 17.657 29.35C18.0856 28.3208 18.0964 27.1651 17.6872 26.128C17.278 25.091 16.4809 24.2541 15.465 23.7949C14.4577 23.3746 13.3276 23.3567 12.3075 23.7449L14.865 24.8049C15.2475 24.9641 15.5948 25.1971 15.8873 25.4906C16.1797 25.784 16.4115 26.1322 16.5693 26.5153C16.7272 26.8983 16.808 27.3087 16.8073 27.723C16.8066 28.1373 16.7242 28.5474 16.565 28.9299C16.4058 29.3123 16.1728 29.6597 15.8793 29.9521C15.5858 30.2446 15.2376 30.4763 14.8546 30.6342C14.4715 30.792 14.0612 30.8729 13.6469 30.8722C13.2326 30.8714 12.8225 30.7891 12.44 30.6299L9.965 29.6049C10.4154 30.5532 11.2009 31.3012 12.17 31.7049V31.7074ZM21.485 14.9899C21.4857 16.3341 22.0196 17.6232 22.9697 18.5742C23.9197 19.5252 25.2083 20.0604 26.5525 20.0624C27.8967 20.0604 29.1853 19.5252 30.1353 18.5742C31.0854 17.6232 31.6193 16.3341 31.62 14.9899C31.618 13.6465 31.0835 12.3587 30.1336 11.4088C29.1837 10.4589 27.8959 9.92435 26.5525 9.92236C25.2091 9.92435 23.9213 10.4589 22.9714 11.4088C22.0215 12.3587 21.487 13.6465 21.485 14.9899ZM26.56 11.1724C27.0603 11.1727 27.5557 11.2716 28.0178 11.4633C28.48 11.6551 28.8998 11.936 29.2533 12.2901C29.6069 12.6441 29.8873 13.0643 30.0784 13.5266C30.2696 13.989 30.3678 14.4845 30.3675 14.9849C30.3672 15.4852 30.2683 15.9806 30.0765 16.4427C29.8847 16.9048 29.6038 17.3246 29.2498 17.6782C28.8958 18.0318 28.4756 18.3121 28.0132 18.5033C27.5508 18.6945 27.0553 18.7927 26.555 18.7924C25.5445 18.7917 24.5757 18.3897 23.8617 17.6747C23.1476 16.9597 22.7468 15.9903 22.7475 14.9799C22.7482 13.9694 23.1502 13.0006 23.8652 12.2865C24.5802 11.5725 25.5495 11.1717 26.56 11.1724Z" fill="white"/>
</g>
</g>
<defs>
<clipPath id="clip0_1_1504">
<rect width="40" height="40" fill="white"/>
</clipPath>
</defs>
</svg>
